<mxfile host="app.diagrams.net" modified="2022-11-05T13:31:02.105Z" agent="5.0 (Windows NT 10.0; Win64; x64) AppleWebKit/537.36 (KHTML, like Gecko) Chrome/107.0.0.0 Safari/537.36" etag="HM_LSsmBP9KsF15tI7Al" version="20.5.2" type="github">
  <diagram id="C5RBs43oDa-KdzZeNtuy" name="Page-1">
    <mxGraphModel dx="1185" dy="635" grid="1" gridSize="10" guides="1" tooltips="1" connect="1" arrows="1" fold="1" page="1" pageScale="1" pageWidth="827" pageHeight="1169" math="0" shadow="0">
      <root>
        <mxCell id="WIyWlLk6GJQsqaUBKTNV-0" />
        <mxCell id="WIyWlLk6GJQsqaUBKTNV-1" parent="WIyWlLk6GJQsqaUBKTNV-0" />
        <mxCell id="eKjWjOePSFAYxYoq28Em-10" value="" style="edgeStyle=orthogonalEdgeStyle;rounded=0;orthogonalLoop=1;jettySize=auto;html=1;" edge="1" parent="WIyWlLk6GJQsqaUBKTNV-1" source="Y3HqmSW5xgAxiZaoGABK-2" target="eKjWjOePSFAYxYoq28Em-9">
          <mxGeometry relative="1" as="geometry" />
        </mxCell>
        <mxCell id="Y3HqmSW5xgAxiZaoGABK-2" value="&lt;b&gt;&lt;font style=&quot;font-size: 30px;&quot;&gt;Start&lt;/font&gt;&lt;/b&gt;" style="rounded=1;whiteSpace=wrap;html=1;" parent="WIyWlLk6GJQsqaUBKTNV-1" vertex="1">
          <mxGeometry x="40" y="40" width="120" height="60" as="geometry" />
        </mxCell>
        <mxCell id="eKjWjOePSFAYxYoq28Em-55" style="edgeStyle=orthogonalEdgeStyle;rounded=0;orthogonalLoop=1;jettySize=auto;html=1;entryX=0.5;entryY=0;entryDx=0;entryDy=0;fontSize=11;" edge="1" parent="WIyWlLk6GJQsqaUBKTNV-1" source="eKjWjOePSFAYxYoq28Em-0" target="eKjWjOePSFAYxYoq28Em-2">
          <mxGeometry relative="1" as="geometry" />
        </mxCell>
        <mxCell id="eKjWjOePSFAYxYoq28Em-0" value="&quot;Welcome!&quot;" style="shape=document;whiteSpace=wrap;html=1;boundedLbl=1;rounded=1;" vertex="1" parent="WIyWlLk6GJQsqaUBKTNV-1">
          <mxGeometry x="40" y="200" width="120" height="80" as="geometry" />
        </mxCell>
        <mxCell id="eKjWjOePSFAYxYoq28Em-5" value="" style="edgeStyle=orthogonalEdgeStyle;rounded=0;orthogonalLoop=1;jettySize=auto;html=1;" edge="1" parent="WIyWlLk6GJQsqaUBKTNV-1" source="eKjWjOePSFAYxYoq28Em-2" target="eKjWjOePSFAYxYoq28Em-4">
          <mxGeometry relative="1" as="geometry" />
        </mxCell>
        <mxCell id="eKjWjOePSFAYxYoq28Em-2" value="&quot;Please enter the number: &quot;" style="shape=document;whiteSpace=wrap;html=1;boundedLbl=1;rounded=1;" vertex="1" parent="WIyWlLk6GJQsqaUBKTNV-1">
          <mxGeometry x="40" y="300" width="120" height="80" as="geometry" />
        </mxCell>
        <mxCell id="eKjWjOePSFAYxYoq28Em-57" style="edgeStyle=orthogonalEdgeStyle;rounded=0;orthogonalLoop=1;jettySize=auto;html=1;exitX=1;exitY=0.5;exitDx=0;exitDy=0;entryX=0;entryY=0.5;entryDx=0;entryDy=0;fontSize=11;" edge="1" parent="WIyWlLk6GJQsqaUBKTNV-1" source="eKjWjOePSFAYxYoq28Em-4" target="eKjWjOePSFAYxYoq28Em-56">
          <mxGeometry relative="1" as="geometry" />
        </mxCell>
        <mxCell id="eKjWjOePSFAYxYoq28Em-4" value="num" style="shape=parallelogram;perimeter=parallelogramPerimeter;whiteSpace=wrap;html=1;fixedSize=1;rounded=0;" vertex="1" parent="WIyWlLk6GJQsqaUBKTNV-1">
          <mxGeometry x="40" y="390" width="120" height="60" as="geometry" />
        </mxCell>
        <mxCell id="eKjWjOePSFAYxYoq28Em-12" style="edgeStyle=orthogonalEdgeStyle;rounded=0;orthogonalLoop=1;jettySize=auto;html=1;" edge="1" parent="WIyWlLk6GJQsqaUBKTNV-1" source="eKjWjOePSFAYxYoq28Em-9" target="eKjWjOePSFAYxYoq28Em-0">
          <mxGeometry relative="1" as="geometry" />
        </mxCell>
        <mxCell id="eKjWjOePSFAYxYoq28Em-9" value="i = 0" style="shape=process;whiteSpace=wrap;html=1;backgroundOutline=1;" vertex="1" parent="WIyWlLk6GJQsqaUBKTNV-1">
          <mxGeometry x="40" y="120" width="120" height="60" as="geometry" />
        </mxCell>
        <mxCell id="eKjWjOePSFAYxYoq28Em-46" value="" style="edgeStyle=orthogonalEdgeStyle;rounded=0;orthogonalLoop=1;jettySize=auto;html=1;fontSize=15;" edge="1" parent="WIyWlLk6GJQsqaUBKTNV-1" source="eKjWjOePSFAYxYoq28Em-44" target="eKjWjOePSFAYxYoq28Em-45">
          <mxGeometry relative="1" as="geometry" />
        </mxCell>
        <mxCell id="eKjWjOePSFAYxYoq28Em-44" value="&lt;span style=&quot;font-size: 12px;&quot;&gt;&quot;Result: &quot;&lt;/span&gt;" style="shape=document;whiteSpace=wrap;html=1;boundedLbl=1;fontSize=15;" vertex="1" parent="WIyWlLk6GJQsqaUBKTNV-1">
          <mxGeometry x="250" y="290" width="120" height="80" as="geometry" />
        </mxCell>
        <mxCell id="eKjWjOePSFAYxYoq28Em-51" value="" style="edgeStyle=orthogonalEdgeStyle;rounded=0;orthogonalLoop=1;jettySize=auto;html=1;fontSize=11;" edge="1" parent="WIyWlLk6GJQsqaUBKTNV-1" source="eKjWjOePSFAYxYoq28Em-45" target="eKjWjOePSFAYxYoq28Em-50">
          <mxGeometry relative="1" as="geometry" />
        </mxCell>
        <mxCell id="eKjWjOePSFAYxYoq28Em-45" value="&lt;span style=&quot;font-size: 12px;&quot;&gt;result&lt;br&gt;&lt;/span&gt;" style="shape=document;whiteSpace=wrap;html=1;boundedLbl=1;fontSize=15;" vertex="1" parent="WIyWlLk6GJQsqaUBKTNV-1">
          <mxGeometry x="390" y="290" width="120" height="80" as="geometry" />
        </mxCell>
        <mxCell id="eKjWjOePSFAYxYoq28Em-64" value="Yes" style="edgeStyle=orthogonalEdgeStyle;rounded=0;sketch=0;orthogonalLoop=1;jettySize=auto;html=1;exitX=0.5;exitY=0;exitDx=0;exitDy=0;entryX=1;entryY=0.5;entryDx=0;entryDy=0;fontSize=11;" edge="1" parent="WIyWlLk6GJQsqaUBKTNV-1" source="eKjWjOePSFAYxYoq28Em-50" target="eKjWjOePSFAYxYoq28Em-2">
          <mxGeometry relative="1" as="geometry">
            <Array as="points">
              <mxPoint x="595" y="270" />
              <mxPoint x="200" y="270" />
              <mxPoint x="200" y="340" />
            </Array>
          </mxGeometry>
        </mxCell>
        <mxCell id="eKjWjOePSFAYxYoq28Em-66" value="No" style="edgeStyle=orthogonalEdgeStyle;rounded=0;sketch=0;orthogonalLoop=1;jettySize=auto;html=1;fontSize=11;" edge="1" parent="WIyWlLk6GJQsqaUBKTNV-1" source="eKjWjOePSFAYxYoq28Em-50" target="eKjWjOePSFAYxYoq28Em-65">
          <mxGeometry relative="1" as="geometry" />
        </mxCell>
        <mxCell id="eKjWjOePSFAYxYoq28Em-50" value="&quot;Start Again?(Y/N) &quot;" style="shape=document;whiteSpace=wrap;html=1;boundedLbl=1;fontSize=15;" vertex="1" parent="WIyWlLk6GJQsqaUBKTNV-1">
          <mxGeometry x="530" y="290" width="130" height="80" as="geometry" />
        </mxCell>
        <mxCell id="eKjWjOePSFAYxYoq28Em-59" value="True" style="edgeStyle=orthogonalEdgeStyle;rounded=0;orthogonalLoop=1;jettySize=auto;html=1;fontSize=11;sketch=0;" edge="1" parent="WIyWlLk6GJQsqaUBKTNV-1" source="eKjWjOePSFAYxYoq28Em-56" target="eKjWjOePSFAYxYoq28Em-58">
          <mxGeometry relative="1" as="geometry">
            <Array as="points">
              <mxPoint x="300" y="420" />
              <mxPoint x="300" y="420" />
            </Array>
          </mxGeometry>
        </mxCell>
        <mxCell id="eKjWjOePSFAYxYoq28Em-63" value="False" style="edgeStyle=orthogonalEdgeStyle;rounded=0;sketch=0;orthogonalLoop=1;jettySize=auto;html=1;exitX=0.5;exitY=0;exitDx=0;exitDy=0;entryX=0;entryY=0.5;entryDx=0;entryDy=0;fontSize=11;" edge="1" parent="WIyWlLk6GJQsqaUBKTNV-1" source="eKjWjOePSFAYxYoq28Em-56" target="eKjWjOePSFAYxYoq28Em-44">
          <mxGeometry x="-0.5" relative="1" as="geometry">
            <mxPoint as="offset" />
          </mxGeometry>
        </mxCell>
        <mxCell id="eKjWjOePSFAYxYoq28Em-56" value="i &amp;lt;= num" style="rhombus;whiteSpace=wrap;html=1;rounded=0;fontSize=11;" vertex="1" parent="WIyWlLk6GJQsqaUBKTNV-1">
          <mxGeometry x="180" y="380" width="80" height="80" as="geometry" />
        </mxCell>
        <mxCell id="eKjWjOePSFAYxYoq28Em-61" value="" style="edgeStyle=orthogonalEdgeStyle;rounded=0;sketch=0;orthogonalLoop=1;jettySize=auto;html=1;fontSize=11;" edge="1" parent="WIyWlLk6GJQsqaUBKTNV-1" source="eKjWjOePSFAYxYoq28Em-58" target="eKjWjOePSFAYxYoq28Em-60">
          <mxGeometry relative="1" as="geometry" />
        </mxCell>
        <mxCell id="eKjWjOePSFAYxYoq28Em-58" value="result = result + i" style="rounded=0;whiteSpace=wrap;html=1;fontSize=11;" vertex="1" parent="WIyWlLk6GJQsqaUBKTNV-1">
          <mxGeometry x="310" y="390" width="120" height="60" as="geometry" />
        </mxCell>
        <mxCell id="eKjWjOePSFAYxYoq28Em-62" style="edgeStyle=orthogonalEdgeStyle;rounded=0;sketch=0;orthogonalLoop=1;jettySize=auto;html=1;exitX=0.5;exitY=1;exitDx=0;exitDy=0;entryX=0.5;entryY=1;entryDx=0;entryDy=0;fontSize=11;" edge="1" parent="WIyWlLk6GJQsqaUBKTNV-1" source="eKjWjOePSFAYxYoq28Em-60" target="eKjWjOePSFAYxYoq28Em-56">
          <mxGeometry relative="1" as="geometry" />
        </mxCell>
        <mxCell id="eKjWjOePSFAYxYoq28Em-60" value="i = i + 1" style="whiteSpace=wrap;html=1;fontSize=11;rounded=0;" vertex="1" parent="WIyWlLk6GJQsqaUBKTNV-1">
          <mxGeometry x="460" y="390" width="120" height="60" as="geometry" />
        </mxCell>
        <mxCell id="eKjWjOePSFAYxYoq28Em-65" value="&lt;b&gt;&lt;font style=&quot;font-size: 30px;&quot;&gt;Finish&lt;/font&gt;&lt;/b&gt;" style="rounded=1;whiteSpace=wrap;html=1;fontSize=15;" vertex="1" parent="WIyWlLk6GJQsqaUBKTNV-1">
          <mxGeometry x="700" y="300" width="120" height="60" as="geometry" />
        </mxCell>
      </root>
    </mxGraphModel>
  </diagram>
</mxfile>
